<svg xmlns="http://www.w3.org/2000/svg" viewBox="0 0 24 24" shape-rendering="crispEdges">
  <rect x="11" y="1" width="2" height="4" fill="#FFDD00"/>
  <rect x="11" y="19" width="2" height="4" fill="#FFDD00"/>
  <rect x="1" y="11" width="4" height="2" fill="#FFDD00"/>
  <rect x="19" y="11" width="4" height="2" fill="#FFDD00"/>
  <rect x="4" y="4" width="2" height="2" fill="#FF8800"/>
  <rect x="6" y="6" width="2" height="2" fill="#FFAA00"/>
  <rect x="18" y="4" width="2" height="2" fill="#FF8800"/>
  <rect x="16" y="6" width="2" height="2" fill="#FFAA00"/>
  <rect x="4" y="18" width="2" height="2" fill="#FF8800"/>
  <rect x="6" y="16" width="2" height="2" fill="#FFAA00"/>
  <rect x="18" y="18" width="2" height="2" fill="#FF8800"/>
  <rect x="16" y="16" width="2" height="2" fill="#FFAA00"/>
  <rect x="8" y="8" width="8" height="8" fill="#FF6600"/>
  <rect x="9" y="7" width="6" height="10" fill="#FF8800"/>
  <rect x="7" y="9" width="10" height="6" fill="#FF8800"/>
  <rect x="9" y="9" width="6" height="6" fill="#FFCC00"/>
  <rect x="10" y="10" width="4" height="4" fill="#FFFFFF"/>
</svg>