<svg xmlns="http://www.w3.org/2000/svg" viewBox="0 0 24 24" shape-rendering="crispEdges">
  <rect x="4" y="3" width="16" height="18" fill="#D4AA70"/>
  <rect x="3" y="4" width="1" height="16" fill="#AA7744"/>
  <rect x="20" y="4" width="1" height="16" fill="#AA7744"/>
  <rect x="4" y="3" width="16" height="1" fill="#AA7744"/>
  <rect x="4" y="20" width="16" height="1" fill="#AA7744"/>
  <rect x="5" y="4" width="14" height="16" fill="#DDBB88"/>
  <rect x="7" y="15" width="2" height="2" fill="#FF4444"/>
  <rect x="7" y="15" width="3" height="1" fill="#FF6644"/>
  <rect x="15" y="7" width="2" height="2" fill="#FFDD00"/>
  <rect x="9" y="13" width="2" height="2" fill="#663300"/>
  <rect x="11" y="11" width="2" height="2" fill="#663300"/>
  <rect x="13" y="9" width="2" height="2" fill="#663300"/>
  <rect x="8" y="8" width="3" height="3" fill="#88AACC"/>
  <rect x="16" y="13" width="3" height="3" fill="#226644"/>
  <rect x="16" y="14" width="3" height="2" fill="#338855"/>
</svg>