<svg xmlns="http://www.w3.org/2000/svg" viewBox="0 0 24 24" shape-rendering="crispEdges">
  <rect x="3" y="8" width="5" height="8" fill="#888888"/>
  <rect x="4" y="9" width="3" height="6" fill="#AAAAAA"/>
  <rect x="8" y="10" width="3" height="1" fill="#AAAAAA"/>
  <rect x="9" y="11" width="2" height="1" fill="#AAAAAA"/>
  <rect x="8" y="12" width="3" height="1" fill="#AAAAAA"/>
  <rect x="9" y="13" width="2" height="1" fill="#AAAAAA"/>
  <rect x="8" y="14" width="3" height="1" fill="#AAAAAA"/>
  <rect x="13" y="8" width="2" height="2" fill="#FF4444"/>
  <rect x="15" y="10" width="2" height="2" fill="#FF4444"/>
  <rect x="17" y="8" width="2" height="2" fill="#FF4444"/>
  <rect x="15" y="12" width="2" height="2" fill="#FF4444"/>
  <rect x="13" y="14" width="2" height="2" fill="#FF4444"/>
  <rect x="17" y="14" width="2" height="2" fill="#FF4444"/>
  <rect x="14" y="10" width="1" height="1" fill="#FF6666"/>
  <rect x="16" y="12" width="1" height="1" fill="#FF6666"/>
</svg>