<svg xmlns="http://www.w3.org/2000/svg" viewBox="0 0 24 24" shape-rendering="crispEdges">
  <rect x="11" y="2" width="2" height="20" fill="#FFD700"/>
  <rect x="2" y="11" width="20" height="2" fill="#FFD700"/>
  <rect x="5" y="5" width="2" height="2" fill="#FFD700"/>
  <rect x="7" y="7" width="2" height="2" fill="#FFD700"/>
  <rect x="9" y="9" width="2" height="2" fill="#FFD700"/>
  <rect x="15" y="5" width="2" height="2" fill="#FFD700"/>
  <rect x="13" y="7" width="2" height="2" fill="#FFD700"/>
  <rect x="13" y="9" width="2" height="2" fill="#FFD700"/>
  <rect x="5" y="17" width="2" height="2" fill="#FFD700"/>
  <rect x="7" y="15" width="2" height="2" fill="#FFD700"/>
  <rect x="9" y="13" width="2" height="2" fill="#FFD700"/>
  <rect x="15" y="17" width="2" height="2" fill="#FFD700"/>
  <rect x="13" y="15" width="2" height="2" fill="#FFD700"/>
  <rect x="13" y="13" width="2" height="2" fill="#FFD700"/>
  <rect x="10" y="10" width="4" height="4" fill="#FFFFFF"/>
  <rect x="11" y="2" width="2" height="1" fill="#FFEE88"/>
  <rect x="21" y="11" width="1" height="2" fill="#FFEE88"/>
</svg>